# AST/ASF file generated using VICON BodyLanguage
# -----------------------------------------------
:version 1.10
:name VICON
:units
  mass 1.0
  length 0.45
  angle deg
:documentation
   .ast/.asf automatically generated from VICON data using
   VICON BodyBuilder and BodyLanguage model FoxedUp or BRILLIANT.MOD
:root
   order TX TY TZ RX RY RZ
   axis XYZ
   position 0 0 0  
   orientation 0 0 0 
:bonedata
  begin
     id 1 
     name lhipjoint
     direction 0.702568 -0.596508 0.388042 
     length 2.56661 
     axis 0 0 0  XYZ
  end
  begin
     id 2 
     name lfemur
     direction 0.34202 -0.939693 0  
     length 6.58374  
     axis 0 0 20  XYZ
    dof rx ry rz
    limits (-160.0 20.0)
           (-70.0 70.0)
           (-60.0 70.0)
  end
  begin
     id 3 
     name ltibia
     direction 0.34202 -0.939693 0   
     length 6.62538   
     axis 0 0 20   XYZ
    dof rx
    limits (-10.0 170.0)
  end
  begin
     id 4 
     name lfoot
     direction 0.10455 -0.287249 0.952133   
     length 2.26699   
     axis -90 7.62852e-016 20   XYZ
    dof rx rz
    limits (-45.0 90.0)
           (-70.0 20.0)
  end
  begin
     id 5 
     name ltoes
     direction 1.53572e-011 -4.22322e-011 1   
     length 1.12949   
     axis -90 7.62852e-016 20   XYZ
    dof rx
    limits (-90.0 20.0)
  end
  begin
     id 6 
     name rhipjoint
     direction -0.728055 -0.574632 0.373811   
     length 2.66432  
     axis 0 0 0  XYZ 
  end
  begin
     id 7 
     name rfemur
     direction -0.34202 -0.939693 0   
     length 6.66732   
     axis 0 0 -20   XYZ
    dof rx ry rz
    limits (-160.0 20.0)
           (-70.0 70.0)
           (-70.0 60.0)
  end
  begin
     id 8 
     name rtibia
     direction -0.34202 -0.939693 0   
     length 6.59288   
     axis 0 0 -20   XYZ
    dof rx
    limits (-10.0 170.0)
 end
 begin
     id 9 
     name rfoot
     direction -0.119193 -0.327479 0.93731   
     length 2.38061  
     axis -90 -7.62852e-016 -20   XYZ
    dof rx rz
    limits (-45.0 90.0)
           (-20.0 70.0)
  end
  begin
     id 10 
     name rtoes
     direction -1.53547e-011 -4.21827e-011 1   
     length 1.17899   
     axis -90 -7.62852e-016 -20   XYZ
    dof rx
    limits (-90.0 20.0)
  end
  begin
     id 11 
     name lowerback
     direction -0.000416114 0.999912 -0.0132284   
     length 2.12109   
     axis 0 0 0   XYZ
    dof rx ry rz
    limits (-20.0 45.0)
           (-30.0 30.0)
           (-30.0 30.0)
  end
  begin
     id 12 
     name upperback
     direction -0.00136371 0.99809 0.0617608   
     length 2.10067   
     axis 0 0 0   XYZ
    dof rx ry rz
    limits (-20.0 45.0)
           (-30.0 30.0)
           (-30.0 30.0)
  end
  begin
     id 13 
     name thorax
     direction -3.43026e-005 0.997776 0.0666515   
     length 2.10618   
     axis 0 0 0   XYZ
    dof rx ry rz
    limits (-20.0 45.0)
           (-30.0 30.0)
           (-30.0 30.0)
  end
  begin
     id 14 
     name lowerneck
     direction 0.0398646 0.998418 0.0396592   
     length 1.83817   
     axis 0 0 0   XYZ
    dof rx ry rz
    limits (-20.0 45.0)
           (-30.0 30.0)
           (-30.0 30.0)
  end
  begin
     id 15 
     name upperneck
     direction -0.0367268 0.961527 -0.272244   
     length 1.81975   
     axis 0 0 0   XYZ
    dof rx ry rz
    limits (-20.0 45.0)
           (-30.0 30.0)
           (-30.0 30.0)
  end
  begin
     id 16
     name head
     direction -0.0182665 0.99536 -0.0944669  
     length 1.86026  
     axis 0 0 0   XYZ
    dof rx ry rz
    limits (-20.0 45.0)
           (-30.0 30.0)
           (-30.0 30.0)
  end
  begin
     id 17 
     name lclavicle
     direction 0.924239 0.361045 0.124212  
     length 3.26878  
     axis 0 0 0   XYZ
    dof ry rz
    limits (-20.0 10.0)
           (0.0 20.0)
  end
  begin
     id 18 
     name lhumerus
     direction 1 -4.48968e-011 -2.56583e-027   
     length 4.58538   
     axis 180 -30 -90   XYZ
    dof rx ry rz
    limits (-60.0 90.0)
           (-90.0 90.0)
           (-90.0 90.0)
  end
  begin
     id 19
     name lradius
     direction 1 -4.4898e-011 -5.50375e-027   
     length 2.68935   
     axis 180 -30 -90   XYZ
    dof rx
    limits (-10.0 170.0)
  end
  begin
     id 20
     name lwrist
     direction 1 -4.48939e-011 -1.48955e-026   
     length 1.34468   
     axis 9.0955e-015 90 90   XYZ
    dof ry
    limits (-180.0 0.0)
 end
  begin
     id 21 
     name lhand
     direction 1 -4.48936e-011 -2.97907e-026   
     length 0.585058   
     axis 1.90115e-014 90 90   XYZ
    dof rx rz
    limits (-90.0 90.0)
           (-45.0 45.0)
  end
  begin
     id 22 
     name lfingers
     direction 1 -4.49082e-011 -5.96235e-026   
     length 0.471689   
     axis 3.80223e-014 90 90   XYZ
    dof rx
    limits (0.0 90.0)
  end
  begin
     id 23
     name lthumb
     direction 0.707107 -6.3489e-011 0.707107   
     length 0.677253   
     axis -90 45 -3.84942e-014   XYZ
    dof rx rz
    limits (-45.0 45.0)
           (-45.0 45.0)
  end
  begin
     id 24 
     name rclavicle
     direction -0.923098 0.371783 0.0983239   
     length 3.19656  
     axis 0 0 0   XYZ 
    dof ry rz
    limits (-10.0 20.0)
           (-20.0 0.0)
  end
  begin
     id 25 
     name rhumerus
     direction -1 -4.48976e-011 -2.5492e-027  
     length 4.4745   
     axis 180 30 90   XYZ
    dof rx ry rz
    limits (-90.0 60.0)
           (-90.0 90.0)
           (-90.0 90.0)
  end
  begin
     id 26 
     name rradius
     direction -1 -4.48941e-011 -4.36555e-027   
     length 2.93896   
     axis 180 30 90   XYZ
    dof rx
    limits (-10.0 170.0)
  end
  begin
     id 27 
     name rwrist
     direction -1 -4.49044e-011 -1.49032e-026   
     length 1.46948   
     axis 9.0955e-015 -90 -90   XYZ
    dof ry
    limits (-180.0 0.0)
  end
  begin
     id 28
     name rhand
     direction -1 -4.48826e-011 -2.97749e-026   
     length 0.405092   
     axis 1.90115e-014 -90 -90   XYZ
    dof rx rz
    limits (-90.0 90.0)
           (-45.0 45.0)
  end
  begin
     id 29
     name rfingers
     direction -1 -4.49209e-011 -5.96602e-026   
     length 0.326596   
     axis 3.80223e-014 -90 -90   XYZ
    dof rx
    limits (0.0 90.0)
  end
  begin
     id 30
     name rthumb
     direction -0.707107 -6.34776e-011 0.707107   
     length 0.468928   
     axis -90 -45 3.84942e-014   XYZ
    dof rx rz
    limits (-45.0 45.0)
           (-45.0 45.0)
  end
:hierarchy
  begin
    root lhipjoint rhipjoint lowerback
    lhipjoint lfemur
    lfemur ltibia
    ltibia lfoot
    lfoot ltoes
    rhipjoint rfemur
    rfemur rtibia
    rtibia rfoot
    rfoot rtoes
    lowerback upperback
    upperback thorax
    thorax lowerneck lclavicle rclavicle
    lowerneck upperneck
    upperneck head
    lclavicle lhumerus
    lhumerus lradius
    lradius lwrist
    lwrist lhand lthumb
    lhand lfingers
    rclavicle rhumerus
    rhumerus rradius
    rradius rwrist
    rwrist rhand rthumb
    rhand rfingers
  end

#!OML:ASF H:\Punching\Project 1\Capture day 1\Session 1\female.ASF
:FULLY-SPECIFIED
:DEGREES
322
root -1.44526 14.9127 5.60901 11.0448 16.9226 0.163061
lowerback -0.471357 -2.33936 1.50315
upperback -5.54589 -3.05891 0.473714
thorax -5.52523 -1.57514 -0.214953
lowerneck -6.73955 1.83681 8.77237
upperneck 35.7509 1.99496 -2.70772
head 13.262 1.78033 -2.35106
rclavicle -2.52674e-015 1.33186e-014
rhumerus 11.3162 22.5647 -75.003
rradius 134.251
rwrist -53.4211
rhand -21.0035 -11.3006
rfingers 7.12502
rthumb 5.37096 -41.2125
lclavicle -2.52674e-015 1.33186e-014
lhumerus 8.71225 -20.964 76.2445
lradius 132.459
lwrist 38.3945
lhand -10.6551 26.6646
lfingers 7.12502
lthumb 15.3527 56.0746
rfemur -38.7248 -2.77338 12.0081
rtibia 48.7138
rfoot -17.9968 -7.75762
rtoes -6.99761
lfemur 3.06466 -10.9177 -3.23939
ltibia 15.6906
lfoot -18.4035 4.742
ltoes -29.8942
323
root -1.46853 14.9207 5.61031 10.8904 19.2714 -0.204168
lowerback -0.253207 -2.14559 2.08674
upperback -5.59236 -2.76535 0.661527
thorax -5.71482 -1.45116 -0.348262
lowerneck -6.90989 0.993967 7.78193
upperneck 35.5304 0.704496 -1.93538
head 13.0917 1.18211 -2.0299
rclavicle -7.50055e-014 6.55989e-015
rhumerus 11.1552 21.4193 -74.237
rradius 135.076
rwrist -53.625
rhand -21.0206 -11.2303
rfingers 7.12502
rthumb 5.35448 -41.1426
lclavicle -7.50055e-014 6.55989e-015
lhumerus 8.31142 -23.3583 77.1072
lradius 134.713
lwrist 38.8993
lhand -11.2234 26.5735
lfingers 7.12502
lthumb 14.8053 56.0247
rfemur -37.8801 -3.98622 12.5482
rtibia 48.4944
rfoot -18.1416 -8.48012
rtoes -6.87187
lfemur 0.955 -11.2967 -1.96059
ltibia 17.6675
lfoot -18.8337 3.32074
ltoes -29.9672
324
root -1.49172 14.9255 5.61055 10.6953 21.4828 -0.601067
lowerback -0.0297983 -1.9346 2.66605
upperback -5.63513 -2.4442 0.855159
thorax -5.89947 -1.31414 -0.476629
lowerneck -7.02994 0.167246 6.79141
upperneck 35.2668 -0.543029 -1.18404
head 12.9261 0.598779 -1.71159
rclavicle -2.54242e-014 7.95139e-016
rhumerus 10.9976 20.2612 -73.4648
rradius 135.841
rwrist -53.7773
rhand -21.0972 -11.2324
rfingers 7.12502
rthumb 5.28045 -41.1466
lclavicle -2.54242e-014 7.95139e-016
lhumerus 8.06672 -25.5382 77.8531
lradius 136.652
lwrist 39.1951
lhand -11.7645 26.5417
lfingers 7.12502
lthumb 14.2839 56.0304
rfemur -37.1047 -5.03852 13.0853
rtibia 48.3138
rfoot -18.2614 -9.22829
rtoes -6.69844
lfemur -0.999671 -11.6555 -0.731538
ltibia 19.4196
lfoot -19.1786 1.99382
ltoes -29.9875
325
root -1.51479 14.9268 5.6096 10.4637 23.5099 -0.992538
lowerback 0.21008 -1.70592 3.19587
upperback -5.65976 -2.09676 1.04832
thorax -6.06819 -1.16241 -0.581547
lowerneck -7.12894 -0.62754 5.84489
upperneck 34.9637 -1.72011 -0.506754
head 12.7707 0.0412477 -1.42194
rclavicle 6.98542e-015 -1.23246e-014
rhumerus 10.8971 19.0958 -72.6989
rradius 136.511
rwrist -53.9269
rhand -21.2158 -11.2805
rfingers 7.12502
rthumb 5.16596 -41.1975
lclavicle 6.98542e-015 -1.23246e-014
lhumerus 7.99579 -27.4686 78.4701
lradius 138.251
lwrist 39.2066
lhand -12.1804 26.5209
lfingers 7.12502
lthumb 13.8831 56.0375
rfemur -36.4119 -5.90756 13.582
rtibia 48.1993
rfoot -18.3693 -10.002
rtoes -6.51957
lfemur -2.75683 -11.9922 0.395069
ltibia 20.9412
lfoot -19.4509 0.794621
ltoes -29.9547
326
root -1.53728 14.9249 5.60782 10.2252 25.311 -1.32378
lowerback 0.455612 -1.45706 3.62342
upperback -5.67924 -1.72316 1.22446
thorax -6.22726 -0.993817 -0.651086
lowerneck -7.15372 -1.38406 4.97095
upperneck 34.6281 -2.81216 0.0711483
head 12.6118 -0.483674 -1.1735
rclavicle -3.49116e-014 -9.14409e-015
rhumerus 10.8231 17.9482 -71.9806
rradius 137.082
rwrist -54.1034
rhand -21.3033 -11.3406
rfingers 7.12502
rthumb 5.0815 -41.2596
lclavicle -3.49116e-014 -9.14409e-015
lhumerus 8.03834 -29.1535 78.9744
lradius 139.517
lwrist 38.9114
lhand -12.4192 26.4874
lfingers 7.12502
lthumb 13.653 56.0196
rfemur -35.823 -6.59777 13.9863
rtibia 48.1743
rfoot -18.4762 -10.7865
rtoes -6.37235
lfemur -4.28063 -12.3077 1.35184
ltibia 22.216
lfoot -19.6574 -0.243338
ltoes -29.8818
327
root -1.55927 14.92 5.60533 10.0202 26.8443 -1.54947
lowerback 0.696788 -1.18413 3.9042
upperback -5.69342 -1.32238 1.37173
thorax -6.37048 -0.805622 -0.673313
lowerneck -7.12942 -2.0881 4.18587
upperneck 34.2857 -3.80323 0.539055
head 12.4592 -0.967692 -0.971063
rclavicle -3.65888e-015 -8.74653e-015
rhumerus 10.7929 16.8318 -71.3339
rradius 137.548
rwrist -54.3454
rhand -21.3561 -11.4075
rfingers 7.12502
rthumb 5.03055 -41.3278
lclavicle -3.65888e-015 -8.74653e-015
lhumerus 8.18047 -30.598 79.3676
lradius 140.482
lwrist 38.3328
lhand -12.4833 26.4387
lfingers 7.12502
lthumb 13.5912 55.975
rfemur -35.368 -7.10252 14.2602
rtibia 48.2538
rfoot -18.5853 -11.5703
rtoes -6.25785
lfemur -5.54769 -12.595 2.0917
ltibia 23.2287
lfoot -19.8039 -1.09011
ltoes -29.7851
328
root -1.5801 14.9133 5.60287 9.88526 28.0855 -1.63409
lowerback 0.913065 -0.893444 4.00758
upperback -5.69372 -0.907497 1.48879
thorax -6.47848 -0.602148 -0.632248
lowerneck -7.10027 -2.72112 3.49177
upperneck 33.9638 -4.66989 0.887872
head 12.3271 -1.40027 -0.816041
rclavicle -4.52359e-014 -1.27222e-014
rhumerus 10.8363 15.7812 -70.7796
rradius 137.898
rwrist -54.6567
rhand -21.3329 -11.4305
rfingers 7.12502
rthumb 5.05289 -41.3502
lclavicle -4.52359e-014 -1.27222e-014
lhumerus 8.40492 -31.7896 79.6499
lradius 141.191
lwrist 37.5319
lhand -12.4126 26.3662
lfingers 7.12502
lthumb 13.6593 55.898
rfemur -35.0584 -7.43298 14.3763
rtibia 48.4397
rfoot -18.7033 -12.322
rtoes -6.15668
lfemur -6.54048 -12.8504 2.58166
ltibia 23.969
lfoot -19.8994 -1.73027
ltoes -29.6845
329
root -1.59937 14.9056 5.60064 9.84987 29.0231 -1.56016
lowerback 1.07958 -0.589245 3.92816
upperback -5.6825 -0.487944 1.56846
thorax -6.54267 -0.3876 -0.531419
lowerneck -7.06151 -3.27086 2.89371
upperneck 33.6769 -5.39949 1.12547
head 12.2143 -1.77356 -0.704366
rclavicle -7.42336e-015 -3.18055e-015
rhumerus 10.944 14.8367 -70.353
rradius 138.145
rwrist -55.026
rhand -21.2977 -11.4633
rfingers 7.12502
rthumb 5.08686 -41.3823
lclavicle -7.42336e-015 -3.18055e-015
lhumerus 8.68378 -32.747 79.8274
lradius 141.691
lwrist 36.5795
lhand -12.2786 26.2759
lfingers 7.12502
lthumb 13.7886 55.7989
rfemur -34.9041 -7.60605 14.3263
rtibia 48.7203
rfoot -18.8246 -13.0107
rtoes -6.07114
lfemur -7.25952 -13.0736 2.81203
ltibia 24.4385
lfoot -19.9529 -2.15104
ltoes -29.6013
330
root -1.61668 14.8977 5.59863 9.92099 29.6601 -1.3421
lowerback 1.20512 -0.278652 3.69354
upperback -5.67134 -0.0719991 1.61308
thorax -6.58429 -0.167661 -0.381966
lowerneck -7.02958 -3.72683 2.38166
upperneck 33.4498 -5.98052 1.26027
head 12.1298 -2.08143 -0.629932
rclavicle -2.4817e-015 1.86858e-014
rhumerus 11.0984 14.0465 -70.0782
rradius 138.291
rwrist -55.4175
rhand -21.2484 -11.4463
rfingers 7.12502
rthumb 5.13452 -41.3641
lclavicle -2.4817e-015 1.86858e-014
lhumerus 8.97844 -33.4888 79.9258
lradius 142.016
lwrist 35.5388
lhand -12.1297 26.1628
lfingers 7.12502
lthumb 13.932 55.6761
rfemur -34.8983 -7.63645 14.1289
rtibia 49.0704
rfoot -18.9427 -13.6188
rtoes -6.00269
lfemur -7.71555 -13.2571 2.80706
ltibia 24.6472
lfoot -19.9725 -2.36117
ltoes -29.5384
